<svg xmlns="http://www.w3.org/2000/svg"  viewBox="0 0 50 50" width="80px" height="80px"><path d="M 25 2 C 12.309295 2 2 12.309295 2 25 C 2 37.690705 12.309295 48 25 48 C 37.690705 48 48 37.690705 48 25 C 48 12.309295 37.690705 2 25 2 z M 25 4 C 36.609824 4 46 13.390176 46 25 C 46 36.609824 36.609824 46 25 46 C 13.390176 46 4 36.609824 4 25 C 4 13.390176 13.390176 4 25 4 z M 25 7 L 26.078125 9.4257812 C 26.130125 9.2567812 26.213516 9.0785 26.353516 8.9375 C 26.744516 8.5465 27.414062 8.5839844 27.414062 8.5839844 C 27.414062 8.5839844 27.451547 9.2535313 27.060547 9.6445312 C 26.845547 9.8595312 26.548266 9.9435625 26.322266 9.9765625 L 27 11.5 L 24.056641 16.544922 L 24.957031 18.804688 L 26.230469 17.408203 C 26.003469 17.391203 25.618469 17.323547 25.355469 17.060547 C 24.964469 16.669547 25.001953 16 25.001953 16 C 25.001953 16 25.6715 15.962516 26.0625 16.353516 C 26.2925 16.583516 26.371391 16.908672 26.400391 17.138672 L 27 14.5 L 27 17.621094 C 27.21 17.663094 27.459484 17.7515 27.646484 17.9375 C 28.037484 18.3285 28 18.998047 28 18.998047 C 28 18.998047 27.330453 19.035531 26.939453 18.644531 C 26.788453 18.493531 26.702344 18.303047 26.652344 18.123047 L 25.357422 19.808594 L 26 21.421875 L 25.998047 21.537109 L 25.998047 30.974609 L 27.964844 26.992188 C 27.735844 26.973188 27.362469 26.901531 27.105469 26.644531 C 26.714469 26.253531 26.751953 25.583984 26.751953 25.583984 C 26.751953 25.583984 27.4215 25.5465 27.8125 25.9375 C 28.0155 26.1405 28.101672 26.419625 28.138672 26.640625 L 29.751953 23.373047 L 29.5 14 L 29.001953 9.5351562 L 30.269531 13.244141 L 31.285156 11.998047 C 31.072156 11.988047 30.640469 11.932484 30.355469 11.646484 C 29.964469 11.255484 30.001953 10.585937 30.001953 10.585938 C 30.001953 10.585938 30.6715 10.548453 31.0625 10.939453 C 31.3375 11.214453 31.399109 11.62375 31.412109 11.84375 L 31.994141 11.128906 L 30.376953 14.763672 L 30.707031 19.439453 L 32.322266 17.416016 C 32.126266 17.411016 31.657469 17.3655 31.355469 17.0625 C 30.964469 16.6715 31.001953 16.001953 31.001953 16.001953 C 31.001953 16.001953 31.6715 15.964469 32.0625 16.355469 C 32.3525 16.645469 32.407016 17.089828 32.416016 17.298828 L 33.251953 16.25 L 35.046875 10.080078 L 34.371094 14.214844 C 34.420094 14.116844 34.4805 14.0205 34.5625 13.9375 C 34.9535 13.5465 35.623047 13.583984 35.623047 13.583984 C 35.623047 13.583984 35.660531 14.253531 35.269531 14.644531 C 34.930531 14.983531 34.384141 15.000047 34.244141 14.998047 L 33.974609 16.65625 L 30.810547 20.919922 L 31 23.589844 L 29.765625 26.373047 C 29.937625 26.224047 30.251 26 30.625 26 C 31.177 26 31.625 26.5 31.625 26.5 C 31.625 26.5 31.177 27 30.625 27 C 30.175 27 29.808594 26.680594 29.683594 26.558594 L 27.884766 30.613281 L 35.015625 27.183594 L 35.25 22.375 L 36 17 L 36 22.5 L 36 23.998047 C 36 23.998047 35.963516 23.3285 36.353516 22.9375 C 36.744516 22.5465 37.414062 22.583984 37.414062 22.583984 C 37.414062 22.583984 37.451547 23.253531 37.060547 23.644531 C 36.669547 24.035531 36 23.998047 36 23.998047 L 36 26.292969 L 39.064453 23.228516 L 39.298828 20.414062 C 39.089828 20.405062 38.643516 20.351547 38.353516 20.060547 C 37.962516 19.669547 38 19 38 19 C 38 19 38.669547 18.962516 39.060547 19.353516 C 39.206547 19.499516 39.29375 19.686328 39.34375 19.861328 L 39.5 18 L 39.878906 21.789062 L 41.751953 18.445312 C 40.409291 15.018174 38.060692 12.094392 35.050781 10.064453 C 35.050781 10.064453 35.048828 10.064453 35.048828 10.064453 C 32.177099 8.1310172 28.720407 7 25 7 z M 25 7 C 24.323 7 23.657 7.0451875 23 7.1171875 L 23 10.5 L 25.322266 12.654297 L 26.125 11.375 L 25 7 z M 22.998047 7.1171875 C 20.042047 7.4451875 17.300125 8.4824531 14.953125 10.064453 L 16.751953 16.25 L 17.587891 17.298828 C 17.596891 17.089828 17.649453 16.645469 17.939453 16.355469 C 18.330453 15.964469 19.001953 16.001953 19.001953 16.001953 C 19.001953 16.001953 19.037484 16.6715 18.646484 17.0625 C 18.343484 17.3655 17.877641 17.410016 17.681641 17.416016 L 19.294922 19.439453 L 19.626953 14.763672 L 18.007812 11.128906 L 18.591797 11.84375 C 18.604797 11.62275 18.666406 11.213453 18.941406 10.939453 C 19.332406 10.548453 20.001953 10.585937 20.001953 10.585938 C 20.001953 10.585938 20.039437 11.255484 19.648438 11.646484 C 19.363437 11.931484 18.929797 11.988047 18.716797 11.998047 L 19.734375 13.244141 L 21.001953 9.5351562 L 20.5 14 L 20.25 23.375 L 21.861328 26.640625 C 21.898328 26.419625 21.985453 26.142453 22.189453 25.939453 C 22.580453 25.548453 23.25 25.585938 23.25 25.585938 C 23.25 25.585938 23.287484 26.255484 22.896484 26.646484 C 22.638484 26.903484 22.264156 26.973187 22.035156 26.992188 L 24.232422 31.447266 L 24.640625 26.144531 L 21.082031 20.777344 L 24.742188 24.830078 L 24.992188 21.578125 L 24.972656 21.527344 C 24.902656 21.600344 24.503 22 24 22 C 23.448 22 23 21.5 23 21.5 C 23 21.5 23.448 21 24 21 C 24.439 21 24.801547 21.305547 24.935547 21.435547 L 23.414062 17.636719 C 23.414062 17.795719 23.388547 18.318484 23.060547 18.646484 C 22.669547 19.037484 22 19 22 19 C 22 19 21.962516 18.330453 22.353516 17.939453 C 22.710516 17.582453 23.295531 17.582937 23.394531 17.585938 L 22.943359 16.455078 L 23.857422 14.996094 C 23.640422 14.984094 23.2185 14.926484 22.9375 14.646484 C 22.5465 14.255484 22.583984 13.585938 22.583984 13.585938 C 22.583984 13.585938 23.253531 13.548453 23.644531 13.939453 C 23.894531 14.189453 23.968234 14.553203 23.990234 14.783203 L 24.802734 13.486328 L 22.25 10.75 L 22.998047 7.1171875 z M 14.951172 10.064453 C 11.940172 12.094453 9.5910469 15.017313 8.2480469 18.445312 L 10.121094 21.789062 L 10.5 18 L 10.654297 19.861328 C 10.705297 19.686328 10.7915 19.500516 10.9375 19.353516 C 11.3285 18.962516 11.998047 19 11.998047 19 C 11.998047 19 12.035531 19.669547 11.644531 20.060547 C 11.353531 20.351547 10.910172 20.405062 10.701172 20.414062 L 10.935547 23.228516 L 14 26.292969 L 14 24 C 14 24 13.330453 24.037484 12.939453 23.646484 C 12.548453 23.255484 12.585938 22.585938 12.585938 22.585938 C 12.585938 22.585938 13.255484 22.548453 13.646484 22.939453 C 14.037484 23.330453 14 24 14 24 L 14 22.5 L 14 17 L 14.75 22.375 L 14.984375 27.183594 L 22.115234 30.613281 L 20.316406 26.558594 C 20.191406 26.680594 19.825 27 19.375 27 C 18.823 27 18.375 26.5 18.375 26.5 C 18.375 26.5 18.823 26 19.375 26 C 19.749 26 20.062375 26.223094 20.234375 26.371094 L 19 23.589844 L 19.189453 20.919922 L 16.025391 16.658203 L 15.755859 15 C 15.615859 15.001 15.067516 14.984484 14.728516 14.646484 C 14.337516 14.255484 14.375 13.585938 14.375 13.585938 C 14.375 13.585938 15.044547 13.548453 15.435547 13.939453 C 15.517547 14.021453 15.578953 14.117797 15.626953 14.216797 L 14.951172 10.064453 z M 17.416016 11.585938 C 17.416016 11.585938 17.4525 12.255484 17.0625 12.646484 C 16.6715 13.037484 16.001953 13 16.001953 13 C 16.001953 13 15.964469 12.330453 16.355469 11.939453 C 16.746469 11.548453 17.416016 11.585938 17.416016 11.585938 z M 32.585938 11.585938 C 32.585938 11.585938 33.255484 11.548453 33.646484 11.939453 C 34.037484 12.330453 34 13 34 13 C 34 13 33.330453 13.037484 32.939453 12.646484 C 32.548453 12.255484 32.585938 11.585938 32.585938 11.585938 z M 8.203125 18.568359 C 7.608125 20.121359 7.2191719 21.773047 7.0761719 23.498047 L 9.828125 23.097656 L 8.203125 18.568359 z M 41.796875 18.568359 L 40.171875 23.097656 L 42.919922 23.5 L 39.697266 23.970703 L 39.587891 24.082031 C 39.752891 24.134031 39.923547 24.217469 40.060547 24.355469 C 40.451547 24.746469 40.414062 25.416016 40.414062 25.416016 C 40.414062 25.416016 39.744516 25.4535 39.353516 25.0625 C 39.217516 24.9265 39.135984 24.755797 39.083984 24.591797 L 35.896484 27.810547 L 39.625 29.25 L 42.410156 29.498047 C 42.782156 28.058047 43 26.556 43 25 C 43 22.731 42.562875 20.567359 41.796875 18.568359 z M 15.998047 19.583984 C 15.998047 19.583984 16.035531 20.253531 15.644531 20.644531 C 15.253531 21.035531 14.583984 20.998047 14.583984 20.998047 C 14.583984 20.998047 14.5475 20.3285 14.9375 19.9375 C 15.3285 19.5465 15.998047 19.583984 15.998047 19.583984 z M 34 19.583984 C 34 19.583984 34.669547 19.5465 35.060547 19.9375 C 35.451547 20.3285 35.414062 20.998047 35.414062 20.998047 C 35.414062 20.998047 34.744516 21.035531 34.353516 20.644531 C 33.962516 20.253531 34 19.583984 34 19.583984 z M 27 21 C 27.552 21 28 21.5 28 21.5 C 28 21.5 27.552 22 27 22 C 26.448 22 26 21.5 26 21.5 C 26 21.5 26.448 21 27 21 z M 17.585938 21.585938 C 17.585938 21.585938 18.255484 21.548453 18.646484 21.939453 C 19.037484 22.330453 19 23 19 23 C 19 23 18.330453 23.037484 17.939453 22.646484 C 17.548453 22.255484 17.585938 21.585938 17.585938 21.585938 z M 32.416016 21.585938 C 32.416016 21.585938 32.4525 22.255484 32.0625 22.646484 C 31.6715 23.037484 31.001953 23 31.001953 23 C 31.001953 23 30.964469 22.330453 31.355469 21.939453 C 31.746469 21.548453 32.416016 21.585938 32.416016 21.585938 z M 7.0761719 23.501953 C 7.0351719 23.996953 7 24.494 7 25 C 7 26.556 7.2178438 28.057047 7.5898438 29.498047 L 10.375 29.25 L 14.103516 27.810547 L 10.916016 24.591797 C 10.864016 24.755797 10.782484 24.9265 10.646484 25.0625 C 10.255484 25.4535 9.5859375 25.416016 9.5859375 25.416016 C 9.5859375 25.416016 9.5484531 24.746469 9.9394531 24.355469 C 10.076453 24.218469 10.247109 24.134031 10.412109 24.082031 L 10.302734 23.970703 L 7.0761719 23.501953 z M 33.583984 23.583984 C 33.583984 23.583984 34.253531 23.5465 34.644531 23.9375 C 35.035531 24.3285 34.998047 24.998047 34.998047 24.998047 C 34.998047 24.998047 34.3285 25.035531 33.9375 24.644531 C 33.5465 24.253531 33.583984 23.583984 33.583984 23.583984 z M 16.414062 23.585938 C 16.414062 23.585938 16.451547 24.255484 16.060547 24.646484 C 15.669547 25.037484 15 25 15 25 C 15 25 14.962516 24.330453 15.353516 23.939453 C 15.744516 23.548453 16.414062 23.585938 16.414062 23.585938 z M 11.001953 27.001953 C 11.001953 27.001953 11.6715 26.964469 12.0625 27.355469 C 12.4535 27.746469 12.416016 28.416016 12.416016 28.416016 C 12.416016 28.416016 11.746469 28.4535 11.355469 28.0625 C 10.964469 27.6715 11.001953 27.001953 11.001953 27.001953 z M 39 27.001953 C 39 27.001953 39.036484 27.6715 38.646484 28.0625 C 38.255484 28.4535 37.585938 28.416016 37.585938 28.416016 C 37.585938 28.416016 37.548453 27.746469 37.939453 27.355469 C 38.330453 26.964469 39 27.001953 39 27.001953 z M 15.330078 28.513672 L 10.5 30 C 10.5 30 11 30.448 11 31 C 11 31.552 10.5 32 10.5 32 C 10.5 32 10 31.552 10 31 C 10 30.448 10.5 30 10.5 30 L 7.5917969 29.501953 C 9.3507969 36.319953 14.989437 41.561375 22.023438 42.734375 L 22.931641 32.755859 L 15.330078 28.513672 z M 34.669922 28.513672 L 27.068359 32.755859 L 27.976562 42.734375 C 35.010563 41.561375 40.648203 36.320906 42.408203 29.503906 L 39.5 30 C 39.5 30 40 30.448 40 31 C 40 31.552 39.5 32 39.5 32 C 39.5 32 39 31.552 39 31 C 39 30.448 39.5 30 39.5 30 L 34.669922 28.513672 z"/></svg>